PathFileType	4	(X/Y/Z)	Patient4_TMGait_0pt8_01_left_42.trc.trc
DataRate	CameraRate	NumFrames	NumMarkers	Units	OrigDataRate	OrigDataStartFrame	OrigNumFrames
86.956521739130	86.956521739130	4	33	mm	86.956521739130	89	       141
Frame#	Time	Sacral			L.Shoulder			Chest			R.Shoulder			Neck			R.ASIS			L.ASIS			R.Thigh.Superior			R.Thigh.Lateral			R.Thigh.Inferior			R.Patella			L.Thigh.Superior			L.Thigh.Lateral			L.Thigh.Inferior			L.Patella			L.Shank.Superior			L.Shank.Lateral			L.Shank.Inferior			R.Shank.Superior			R.Shank.Lateral			R.Shank.Inferior			R.Heel			R.Midfoot.Superior			R.Midfoot.Lateral			R.Toe			L.Heel			L.Midfoot.Lateral			L.Midfoot.Superior			L.Toe			L.Elbow			L.Wrist			R.Elbow			R.Wrist			
		X1	Y1	Z1	X2	Y2	Z2	X3	Y3	Z3	X4	Y4	Z4	X5	Y5	Z5	X6	Y6	Z6	X7	Y7	Z7	X8	Y8	Z8	X9	Y9	Z9	X10	Y10	Z10	X11	Y11	Z11	X12	Y12	Z12	X13	Y13	Z13	X14	Y14	Z14	X15	Y15	Z15	X16	Y16	Z16	X17	Y17	Z17	X18	Y18	Z18	X19	Y19	Z19	X20	Y20	Z20	X21	Y21	Z21	X22	Y22	Z22	X23	Y23	Z23	X24	Y24	Z24	X25	Y25	Z25	X26	Y26	Z26	X27	Y27	Z27	X28	Y28	Z28	X29	Y29	Z29	X30	Y30	Z30	X31	Y31	Z31	X32	Y32	Z32	X33	Y33	Z33	

89	47.562000000000	919.395435329031	990.519900881798	478.730020131936	1096.109840284556	1428.596507212938	309.581636738795	1195.313812517493	1354.934244726781	471.143418278615	1103.957468843856	1419.770297827256	644.872179506842	1072.945741562691	1482.172661955468	466.520839668160	1151.620586567665	930.068650600695	594.985418879712	1130.173602398416	950.449680957782	321.750744585721	1223.528585710626	750.814793555854	563.457301417488	1163.412447872928	630.838852906086	626.225169112855	1250.269770754431	591.069261043008	547.569254498801	1268.601199669002	499.681157262615	556.945652941973	1147.850424871406	720.795854008141	336.608462055710	1041.176958590702	617.436280301557	275.940031807814	1120.068365063751	522.495211403996	327.373055943102	1102.258668686203	439.235006893599	324.500684768924	1029.331789197764	387.494289711727	322.470646312197	883.934526664885	353.296535517155	282.696557579590	865.601790218836	225.989581471942	339.085061109569	1241.305679177405	408.062582975298	564.385843039893	1173.939223796672	302.854150787952	628.157750759866	1218.930395641203	208.141203263666	566.974114042162	1088.269836772969	43.486753504821	541.546321952268	1259.001218539498	97.556284582982	575.566614159460	1171.927188356189	38.011306282669	616.067522610711	1379.652166252708	46.182219892385	604.215621211585	673.722185169728	169.618244231415	388.242504788834	725.039657340979	118.237646044665	308.458332682137	830.167270178358	124.403688122686	324.345128172668	903.153781423821	30.507419203113	300.563600692200	1148.960506679274	1102.528889845756	149.615952758435	1402.846802029312	1098.620353422611	179.832260596246	970.427588127930	1096.450654045843	739.803749773471	930.077150322318	839.534682576110	746.313910650596	
90	47.573500000000	919.667599545337	992.094991364694	482.289959661462	1095.381302476583	1430.009761779875	311.432808288491	1195.915123793996	1356.334263074773	472.213887450869	1105.984980565626	1421.193337887669	646.579648324480	1073.504628806747	1483.649744670319	468.425979604309	1152.578049496870	931.870372820139	597.228955587505	1129.586349578912	951.438033595924	324.199697669906	1222.617333257478	750.251217423116	566.932335982602	1159.949827713299	630.921650138336	628.265112259837	1246.522554941603	590.229355792951	549.717256022614	1263.360411132179	498.787996693634	558.288101572136	1153.405861533281	723.481828486717	339.328364815187	1051.341916914295	617.253462718136	277.549293735796	1133.161683259254	524.184699108159	329.220313153817	1116.458271514003	439.668966932924	325.691436523599	1041.631956590698	388.218574984576	323.472679668174	895.001013636742	359.493146973782	283.373358971404	872.102304276991	232.791735637160	339.296475875781	1235.251905665011	407.529245840687	565.534726492878	1167.190166204711	302.741836851074	629.017702856884	1211.100037702689	207.820755901075	567.386897908731	1079.318878678434	43.569726766999	541.703669797009	1249.979647378290	97.604932420001	575.871419038844	1162.909949238141	38.091273325348	616.249477532271	1370.636720190714	46.096030541880	604.602626435468	678.495777989467	187.282814799515	387.853246133091	726.640933866941	132.384727543545	308.182014965373	832.159186669785	131.063645456751	324.457887538752	897.468560527558	29.612064837220	300.682401391087	1140.363850495286	1100.296224618640	155.217711424831	1394.645745404685	1083.601464735466	182.121226175700	980.014826906290	1094.251084420376	743.322976624408	952.208688154004	835.421623370428	748.746384276103	
91	47.585000000000	919.724156853939	993.681032631542	485.878384287224	1094.251896372291	1431.334056579809	313.137938184648	1196.314403165731	1357.685273483727	473.010746638200	1108.029074570154	1422.555591858354	648.133893303994	1073.907095136051	1485.066511001785	470.211768811190	1153.359329151013	933.579294694876	599.209954881031	1128.713727693280	952.344530487263	326.382583878749	1221.207179923263	749.462692327297	570.203751413634	1156.082026242860	630.966914564739	630.225045200783	1242.221025016526	589.308136752202	551.657153638457	1257.560848497212	497.857375224349	559.492522881791	1158.883182001871	726.532233199891	342.097072626100	1061.624739743988	617.546876492729	279.154705567852	1146.222868192582	526.529688133610	331.339589246188	1130.864400534561	440.824890965058	327.300069623532	1054.424548167381	389.495210617514	324.731841067496	906.883154762246	365.769525792594	284.098222163578	879.722532312381	239.767950957910	339.685812756823	1228.712623107784	406.985133588129	566.623674757818	1160.053006160430	302.564757726284	629.824866206724	1203.010902084054	207.488891610311	567.782910236291	1070.243780566382	43.625556786119	541.848573336172	1240.863629332615	97.564417182015	576.139970363428	1153.783909560376	38.111022881570	616.403284430642	1361.532206371040	45.874047355897	604.914849376862	684.893978961316	204.258937702026	387.480086863686	730.121300869698	146.352675994650	307.914904695643	835.690826133236	138.198933106350	324.727525360653	893.744734026589	29.278234288721	300.801148958039	1131.762100947823	1098.252401316024	160.821173545012	1385.636849744204	1067.300416971663	184.348985104369	989.891440235969	1092.186817343163	746.839121019686	975.676538736008	831.952664599963	751.022815903043	
92	47.596500000000	919.595430116261	995.261368317567	489.456884880531	1092.753576651912	1432.549867320736	314.697660787689	1196.520036237281	1358.964968519910	473.544439718204	1110.092909471259	1423.848564793854	649.536682094469	1074.164759271566	1486.418246511371	471.873628740222	1153.958018242657	935.180938155680	600.928674631246	1127.588828547405	953.174182766897	328.274909359128	1219.322318672599	748.542427795967	573.155710143262	1151.943143508325	631.029352484464	632.116803541838	1237.454123643142	588.358067517163	553.375879776585	1251.294399327438	496.930156129170	560.601430029345	1164.161730896504	729.963564908426	344.896190164668	1071.823825738754	618.392722183790	280.749163509765	1159.039017598296	529.576361435649	333.647224038031	1145.271394546560	442.754271757350	329.193108766747	1067.525514618118	391.363636064344	326.159095610024	919.355919168245	371.989421535586	284.865406301538	888.425222809354	246.684570447437	340.208337492797	1221.788927337334	406.455319756700	567.663935047088	1152.620710937282	302.354346363059	630.602698495233	1194.725406249306	207.165002377568	568.171897762673	1061.067576523190	43.674463930264	541.988606126891	1231.685879650728	97.456235009467	576.377458911973	1144.573190913750	38.092830140968	616.538599907990	1352.362978098194	45.534617511157	605.160054255722	692.789154169256	219.804957164819	387.134920795627	735.540141583136	159.483389518874	307.668843301891	840.914700354088	145.500651405711	325.104096180754	892.541481005576	29.668377258169	300.925224943934	1123.266881670467	1096.364729821153	166.383157388065	1375.678921395081	1049.830756057891	186.497189411442	1000.107390664241	1090.241610437908	750.304390394189	1000.365650224228	829.287985665872	753.099868086174	
